# AST/ASF file generated using VICON BodyLanguage
# -----------------------------------------------
:version 1.10
:name VICON
:units
  mass 1.0
  length 0.45
  angle deg
:documentation
   .ast/.asf automatically generated from VICON data using
   VICON BodyBuilder and BodyLanguage model FoxedUp or BRILLIANT.MOD
:root
   order TX TY TZ RX RY RZ
   axis XYZ
   position 0 0 0  
   orientation 0 0 0 
:bonedata
  begin
     id 1 
     name lhipjoint
     direction 0.573633 -0.743009 0.344793 
     length 2.46257 
     axis 0 0 0  XYZ
  end
  begin
     id 2 
     name lfemur
     direction 0.34202 -0.939693 0  
     length 7.3842  
     axis 0 0 20  XYZ
    dof rx ry rz
    limits (-160.0 20.0)
           (-70.0 70.0)
           (-60.0 70.0)
  end
  begin
     id 3 
     name ltibia
     direction 0.34202 -0.939693 0   
     length 7.50407   
     axis 0 0 20   XYZ
    dof rx
    limits (-10.0 170.0)
  end
  begin
     id 4 
     name lfoot
     direction 0.110749 -0.304281 0.946123   
     length 1.95925   
     axis -90 7.62852e-016 20   XYZ
    dof rx rz
    limits (-45.0 90.0)
           (-70.0 20.0)
  end
  begin
     id 5 
     name ltoes
     direction 1.53554e-011 -4.21843e-011 1   
     length 0.978318   
     axis -90 7.62852e-016 20   XYZ
    dof rx
    limits (-90.0 20.0)
  end
  begin
     id 6 
     name rhipjoint
     direction -0.488109 -0.791693 0.367385   
     length 2.31113  
     axis 0 0 0  XYZ 
  end
  begin
     id 7 
     name rfemur
     direction -0.34202 -0.939693 0   
     length 7.40965   
     axis 0 0 -20   XYZ
    dof rx ry rz
    limits (-160.0 20.0)
           (-70.0 70.0)
           (-70.0 60.0)
  end
  begin
     id 8 
     name rtibia
     direction -0.34202 -0.939693 0   
     length 7.55548   
     axis 0 0 -20   XYZ
    dof rx
    limits (-10.0 170.0)
 end
 begin
     id 9 
     name rfoot
     direction -0.127594 -0.350561 0.927808   
     length 2.07199  
     axis -90 -7.62852e-016 -20   XYZ
    dof rx rz
    limits (-45.0 90.0)
           (-20.0 70.0)
  end
  begin
     id 10 
     name rtoes
     direction -1.53542e-011 -4.21909e-011 1   
     length 1.02667   
     axis -90 -7.62852e-016 -20   XYZ
    dof rx
    limits (-90.0 20.0)
  end
  begin
     id 11 
     name lowerback
     direction -0.0103342 0.997298 -0.0727278   
     length 2.02836   
     axis 0 0 0   XYZ
    dof rx ry rz
    limits (-20.0 45.0)
           (-30.0 30.0)
           (-30.0 30.0)
  end
  begin
     id 12 
     name upperback
     direction 0.0171146 0.999786 -0.011606   
     length 2.03179   
     axis 0 0 0   XYZ
    dof rx ry rz
    limits (-20.0 45.0)
           (-30.0 30.0)
           (-30.0 30.0)
  end
  begin
     id 13 
     name thorax
     direction 0.0216927 0.999513 0.0224343   
     length 2.03882   
     axis 0 0 0   XYZ
    dof rx ry rz
    limits (-20.0 45.0)
           (-30.0 30.0)
           (-30.0 30.0)
  end
  begin
     id 14 
     name lowerneck
     direction 0.000989287 0.993907 0.110221   
     length 1.75428   
     axis 0 0 0   XYZ
    dof rx ry rz
    limits (-20.0 45.0)
           (-30.0 30.0)
           (-30.0 30.0)
  end
  begin
     id 15 
     name upperneck
     direction -0.0172474 0.994813 -0.100253   
     length 1.77058   
     axis 0 0 0   XYZ
    dof rx ry rz
    limits (-20.0 45.0)
           (-30.0 30.0)
           (-30.0 30.0)
  end
  begin
     id 16
     name head
     direction -0.00486455 0.99894 -0.0457663  
     length 1.77427  
     axis 0 0 0   XYZ
    dof rx ry rz
    limits (-20.0 45.0)
           (-30.0 30.0)
           (-30.0 30.0)
  end
  begin
     id 17 
     name lclavicle
     direction 0.927314 0.333734 -0.169441  
     length 3.97584  
     axis 0 0 0   XYZ
    dof ry rz
    limits (-20.0 10.0)
           (0.0 20.0)
  end
  begin
     id 18 
     name lhumerus
     direction 1 -4.48965e-011 -3.25313e-028   
     length 4.76468   
     axis 180 -30 -90   XYZ
    dof rx ry rz
    limits (-60.0 90.0)
           (-90.0 90.0)
           (-90.0 90.0)
  end
  begin
     id 19
     name lradius
     direction 1 -4.48969e-011 -2.8465e-028   
     length 3.52712   
     axis -180 -30 -90   XYZ
    dof rx
    limits (-10.0 170.0)
  end
  begin
     id 20
     name lwrist
     direction 1 -4.4896e-011 -7.78665e-028   
     length 1.76356   
     axis 1.91374e-015 90 90   XYZ
    dof ry
    limits (-180.0 0.0)
 end
  begin
     id 21 
     name lhand
     direction 1 -4.48959e-011 -1.55733e-027   
     length 0.859564   
     axis 9.9371e-016 90 90   XYZ
    dof rx rz
    limits (-90.0 90.0)
           (-45.0 45.0)
  end
  begin
     id 22 
     name lfingers
     direction 1 -4.48965e-011 -3.11466e-027   
     length 0.693002   
     axis 1.98742e-015 90 90   XYZ
    dof rx
    limits (0.0 90.0)
  end
  begin
     id 23
     name lthumb
     direction 0.707107 -6.34948e-011 0.707107   
     length 0.995017   
     axis -90 45 2.85299e-015   XYZ
    dof rx rz
    limits (-45.0 45.0)
           (-45.0 45.0)
  end
  begin
     id 24 
     name rclavicle
     direction -0.899388 0.348209 -0.264294   
     length 3.68366  
     axis 0 0 0   XYZ 
    dof ry rz
    limits (-10.0 20.0)
           (-20.0 0.0)
  end
  begin
     id 25 
     name rhumerus
     direction -1 -4.48965e-011 -3.01536e-027  
     length 4.90577   
     axis 180 30 90   XYZ
    dof rx ry rz
    limits (-90.0 60.0)
           (-90.0 90.0)
           (-90.0 90.0)
  end
  begin
     id 26 
     name rradius
     direction -1 -4.48966e-011 3.93291e-027   
     length 3.42692   
     axis -180 30 90   XYZ
    dof rx
    limits (-10.0 170.0)
  end
  begin
     id 27 
     name rwrist
     direction -1 -4.48969e-011 -7.78665e-028   
     length 1.71346   
     axis 1.91374e-015 -90 -90   XYZ
    dof ry
    limits (-180.0 0.0)
  end
  begin
     id 28
     name rhand
     direction -1 -4.48967e-011 -1.55733e-027   
     length 0.740957   
     axis 9.9371e-016 -90 -90   XYZ
    dof rx rz
    limits (-90.0 90.0)
           (-45.0 45.0)
  end
  begin
     id 29
     name rfingers
     direction -1 -4.48949e-011 -3.11466e-027   
     length 0.597378   
     axis 1.98742e-015 -90 -90   XYZ
    dof rx
    limits (0.0 90.0)
  end
  begin
     id 30
     name rthumb
     direction -0.707107 -6.34931e-011 0.707107   
     length 0.857719   
     axis -90 -45 -2.85299e-015   XYZ
    dof rx rz
    limits (-45.0 45.0)
           (-45.0 45.0)
  end
:hierarchy
  begin
    root lhipjoint rhipjoint lowerback
    lhipjoint lfemur
    lfemur ltibia
    ltibia lfoot
    lfoot ltoes
    rhipjoint rfemur
    rfemur rtibia
    rtibia rfoot
    rfoot rtoes
    lowerback upperback
    upperback thorax
    thorax lowerneck lclavicle rclavicle
    lowerneck upperneck
    upperneck head
    lclavicle lhumerus
    lhumerus lradius
    lradius lwrist
    lwrist lhand lthumb
    lhand lfingers
    rclavicle rhumerus
    rhumerus rradius
    rradius rwrist
    rwrist rhand rthumb
    rhand rfingers
  end

#!OML:ASF E:\I on waltz\AllaLogoMonkeySwing\Project 1\Capture day 1\Session 1\Subject1.ASF
:FULLY-SPECIFIED
:DEGREES
328
root 0.0042893 17.4453 -6.73505 -4.12997 13.1167 -4.95894
lowerback 13.192 2.9697 2.66275
upperback 3.35047 4.3361 0.802908
thorax -3.71827 2.13766 -1.35215
lowerneck -9.34425 4.30316 1.18508
upperneck 33.6096 8.25594 -5.37527
head 13.0938 3.23862 -1.13543
rclavicle -3.63776e-014 -2.98177e-015
rhumerus -22.8693 -16.1475 -72.923
rradius 33.372
rwrist -2.31441
rhand -11.5681 -398.477
rfingers 7.12502
rthumb 14.4732 -67.9527
lclavicle -3.63776e-014 -2.98177e-015
lhumerus -51.8383 25.9462 72.8815
lradius 36.0343
lwrist -16.1148
lhand 6.06392 -16.1074
lfingers 7.12502
lthumb 31.3842 11.2201
rfemur -1.90503 -1.06304 30.2495
rtibia 29.8923
rfoot -19.4843 -9.29906
rtoes 22.2205
lfemur -23.9012 -1.46395 -16.0869
ltibia 44.0444
lfoot -19.5569 2.40188
ltoes -24.8896
329
root -0.0067297 17.4661 -6.96925 -4.15626 13.5034 -4.48789
lowerback 13.1901 2.83069 2.32953
upperback 3.3765 4.09881 0.604873
thorax -3.70801 2.02292 -1.33456
lowerneck -8.78244 5.18403 2.17981
upperneck 33.2412 9.46407 -5.87076
head 12.9588 3.8571 -1.34098
rclavicle -4.12975e-014 -5.36719e-015
rhumerus -25.4777 -18.4579 -71.5318
rradius 31.3924
rwrist -1.82949
rhand -11.5926 -397.877
rfingers 7.12502
rthumb 14.4496 -67.3542
lclavicle -4.12975e-014 -5.36719e-015
lhumerus -51.748 24.6608 72.7606
lradius 36.5422
lwrist -13.98
lhand 6.47937 -14.9544
lfingers 7.12502
lthumb 31.78 12.2954
rfemur -2.76306 -1.00804 29.6338
rtibia 30.0998
rfoot -19.2084 -9.66702
rtoes 23.5055
lfemur -22.9289 -1.49322 -15.993
ltibia 47.2192
lfoot -19.632 2.80924
ltoes -25.5194
330
root -0.00315076 17.4773 -7.21351 -4.09643 13.9554 -4.05704
lowerback 13.2169 2.66736 2.2865
upperback 3.35095 3.87166 0.447864
thorax -3.74935 1.91006 -1.44096
lowerneck -8.22792 6.07486 3.00539
upperneck 32.812 10.7699 -6.48541
head 12.8308 4.48832 -1.54799
rclavicle -5.41191e-014 3.18055e-015
rhumerus -28.1828 -20.9167 -69.5547
rradius 29.4122
rwrist -0.613595
rhand -10.6144 -398.226
rfingers 7.12502
rthumb 15.3919 -67.6326
lclavicle -5.41191e-014 3.18055e-015
lhumerus -51.5888 23.3351 72.7693
lradius 37.1155
lwrist -11.6079
lhand 6.7013 -13.9278
lfingers 7.12502
lthumb 31.9913 13.2799
rfemur -3.57796 -1.37264 28.9178
rtibia 30.185
rfoot -19.1233 -9.81956
rtoes 22.2827
lfemur -21.8701 -1.54151 -15.8626
ltibia 50.4285
lfoot -19.7134 2.68259
ltoes -25.7946
331
root -0.00503018 17.4812 -7.45473 -4.03105 14.3387 -3.71943
lowerback 13.2001 2.59603 2.28129
upperback 3.31587 3.77268 0.349008
thorax -3.77423 1.86056 -1.52579
lowerneck -7.7367 6.93025 3.71865
upperneck 32.4216 12.0437 -7.04981
head 12.7447 5.09874 -1.71691
rclavicle 4.11981e-014 -3.37934e-015
rhumerus -31.2598 -23.5842 -67.026
rradius 27.6303
rwrist 1.2034
rhand -9.14987 -399.012
rfingers 7.12502
rthumb 16.8022 -68.3052
lclavicle 4.11981e-014 -3.37934e-015
lhumerus -51.2891 21.8206 72.8314
lradius 37.6783
lwrist -9.38717
lhand 6.70534 -13.2329
lfingers 7.12502
lthumb 31.9952 13.974
rfemur -4.35501 -1.70928 28.3382
rtibia 30.1419
rfoot -19.1031 -9.91613
rtoes 22.3098
lfemur -20.6468 -1.45508 -15.5307
ltibia 53.3806
lfoot -19.6323 2.11789
ltoes -26.0667
332
root -0.0114934 17.5087 -7.69402 -3.94469 14.6133 -3.46112
lowerback 13.1541 2.44036 2.09102
upperback 3.23722 3.53921 0.296215
thorax -3.84921 1.74442 -1.43801
lowerneck -7.16559 7.94531 4.61174
upperneck 32.0399 13.5542 -7.70812
head 12.7114 5.82667 -1.91713
rclavicle 6.93758e-014 -1.03368e-014
rhumerus -34.4143 -26.0926 -64.3119
rradius 25.6983
rwrist 3.28676
rhand -8.47475 -399.06
rfingers 7.12502
rthumb 17.452 -68.2962
lclavicle 6.93758e-014 -1.03368e-014
lhumerus -51.1442 20.8747 72.35
lradius 38.2007
lwrist -7.71811
lhand 6.60878 -12.9659
lfingers 7.12502
lthumb 31.9032 14.2594
rfemur -5.09425 -2.06418 27.8659
rtibia 29.9063
rfoot -18.606 -9.89562
rtoes 22.9252
lfemur -19.2252 -1.2163 -15.0168
ltibia 56.018
lfoot -19.176 1.18752
ltoes -26.7898
